<?xml version="1.0" encoding="iso-8859-1"?>
<!-- Uploaded to: SVG Repo, www.svgrepo.com, Generator: SVG Repo Mixer Tools -->
<svg fill="#000000" height="800px" width="800px" version="1.1" id="Layer_1" xmlns="http://www.w3.org/2000/svg" xmlns:xlink="http://www.w3.org/1999/xlink" 
	 viewBox="0 0 512 512" xml:space="preserve">
<g>
	<g>
		<path d="M210.241,269.714H27.473C12.299,269.714,0,282.013,0,297.187v182.768c0,15.174,12.299,27.473,27.473,27.473h182.768
			c15.174,0,27.473-12.299,27.473-27.473V297.187C237.714,282.013,225.415,269.714,210.241,269.714z M219.429,479.955
			c0,5.074-4.114,9.187-9.187,9.187H27.473c-5.074,0-9.187-4.114-9.187-9.187V297.187c0-5.074,4.114-9.187,9.187-9.187h182.768
			c5.074,0,9.187,4.114,9.187,9.187V479.955z"/>
	</g>
</g>
<g>
	<g>
		<path d="M484.527,269.714H301.759c-15.174,0-27.473,12.299-27.473,27.473v182.768c0,15.174,12.299,27.473,27.473,27.473h182.768
			c15.174,0,27.473-12.299,27.473-27.473V297.187C512,282.013,499.701,269.714,484.527,269.714z M493.714,479.955
			c0,5.074-4.114,9.187-9.187,9.187H301.759c-5.074,0-9.187-4.114-9.187-9.187V297.187c0-5.074,4.114-9.187,9.187-9.187h182.768
			c5.074,0,9.187,4.114,9.187,9.187V479.955z"/>
	</g>
</g>
<g>
	<g>
		<path d="M210.241,4.571H27.473C12.299,4.571,0,16.872,0,32.046v182.766c0,15.174,12.299,27.474,27.473,27.474h182.768
			c15.174,0,27.473-12.3,27.473-27.474V32.046C237.714,16.872,225.415,4.571,210.241,4.571z M219.429,214.813
			c0,5.074-4.114,9.187-9.187,9.187H27.473c-5.074,0-9.187-4.114-9.187-9.187V32.045c0-5.074,4.114-9.187,9.187-9.187h182.768
			c5.074,0,9.187,4.114,9.187,9.187V214.813z"/>
	</g>
</g>
<g>
	<g>
		<path d="M484.527,4.571H301.759c-15.174,0-27.473,12.3-27.473,27.474v182.766c0,15.174,12.299,27.474,27.473,27.474h182.768
			c15.174,0,27.473-12.3,27.473-27.474V32.046C512,16.872,499.701,4.571,484.527,4.571z M493.714,214.813
			c0,5.074-4.114,9.187-9.187,9.187H301.759c-5.074,0-9.187-4.114-9.187-9.187V32.045c0-5.074,4.114-9.187,9.187-9.187h182.768
			c5.074,0,9.187,4.114,9.187,9.187V214.813z"/>
	</g>
</g>
<g>
	<g>
		<path d="M65.143,306.286c-15.125,0-27.429,12.304-27.429,27.429c0,15.125,12.304,27.429,27.429,27.429
			c15.125,0,27.429-12.304,27.429-27.429C92.571,318.589,80.268,306.286,65.143,306.286z M65.143,342.857
			c-5.043,0-9.143-4.1-9.143-9.143c0-5.043,4.1-9.143,9.143-9.143c5.042,0,9.143,4.1,9.143,9.143
			C74.286,338.757,70.185,342.857,65.143,342.857z"/>
	</g>
</g>
<g>
	<g>
		<path d="M120,361.143c-15.125,0-27.429,12.304-27.429,27.429C92.571,403.696,104.875,416,120,416
			c15.125,0,27.429-12.304,27.429-27.429C147.429,373.446,135.125,361.143,120,361.143z M120,397.714
			c-5.042,0-9.143-4.1-9.143-9.143c0-5.042,4.1-9.143,9.143-9.143c5.043,0,9.143,4.1,9.143,9.143
			C129.143,393.614,125.043,397.714,120,397.714z"/>
	</g>
</g>
<g>
	<g>
		<path d="M394.286,96c-15.125,0-27.429,12.305-27.429,27.429c0,15.124,12.304,27.429,27.429,27.429
			c15.125,0,27.429-12.305,27.429-27.429C421.714,108.305,409.411,96,394.286,96z M394.286,132.571
			c-5.042,0-9.143-4.102-9.143-9.143c0-5.041,4.1-9.143,9.143-9.143c5.043,0,9.143,4.102,9.143,9.143
			C403.429,128.47,399.328,132.571,394.286,132.571z"/>
	</g>
</g>
<g>
	<g>
		<path d="M65.143,150.857c-15.125,0-27.429,12.305-27.429,27.429s12.304,27.429,27.429,27.429
			c15.125,0,27.429-12.305,27.429-27.429S80.268,150.857,65.143,150.857z M65.143,187.429c-5.043,0-9.143-4.102-9.143-9.143
			s4.1-9.143,9.143-9.143c5.042,0,9.143,4.102,9.143,9.143S70.185,187.429,65.143,187.429z"/>
	</g>
</g>
<g>
	<g>
		<path d="M174.857,41.143c-15.125,0-27.429,12.305-27.429,27.429S159.732,96,174.857,96c15.125,0,27.429-12.305,27.429-27.429
			S189.982,41.143,174.857,41.143z M174.857,77.714c-5.043,0-9.143-4.102-9.143-9.143s4.1-9.143,9.143-9.143
			c5.042,0,9.143,4.102,9.143,9.143S179.9,77.714,174.857,77.714z"/>
	</g>
</g>
<g>
	<g>
		<path d="M339.429,306.286c-15.125,0-27.429,12.304-27.429,27.429c0,15.125,12.304,27.429,27.429,27.429
			s27.429-12.304,27.429-27.429C366.857,318.589,354.554,306.286,339.429,306.286z M339.429,342.857c-5.043,0-9.143-4.1-9.143-9.143
			c0-5.043,4.1-9.143,9.143-9.143s9.143,4.1,9.143,9.143C348.571,338.757,344.471,342.857,339.429,342.857z"/>
	</g>
</g>
<g>
	<g>
		<path d="M339.429,416C324.304,416,312,428.304,312,443.429c0,15.125,12.304,27.429,27.429,27.429s27.429-12.304,27.429-27.429
			C366.857,428.304,354.554,416,339.429,416z M339.429,452.571c-5.043,0-9.143-4.1-9.143-9.143c0-5.043,4.1-9.143,9.143-9.143
			s9.143,4.1,9.143,9.143C348.571,448.471,344.471,452.571,339.429,452.571z"/>
	</g>
</g>
<g>
	<g>
		<path d="M449.143,306.286c-15.125,0-27.429,12.304-27.429,27.429c0,15.125,12.304,27.429,27.429,27.429
			c15.125,0,27.429-12.304,27.429-27.429C476.571,318.589,464.268,306.286,449.143,306.286z M449.143,342.857
			c-5.043,0-9.143-4.1-9.143-9.143c0-5.043,4.1-9.143,9.143-9.143c5.042,0,9.143,4.1,9.143,9.143
			C458.286,338.757,454.185,342.857,449.143,342.857z"/>
	</g>
</g>
<g>
	<g>
		<path d="M449.143,416c-15.125,0-27.429,12.304-27.429,27.429c0,15.125,12.304,27.429,27.429,27.429
			c15.125,0,27.429-12.304,27.429-27.429C476.571,428.304,464.268,416,449.143,416z M449.143,452.571
			c-5.043,0-9.143-4.1-9.143-9.143c0-5.043,4.1-9.143,9.143-9.143c5.042,0,9.143,4.1,9.143,9.143
			C458.286,448.471,454.185,452.571,449.143,452.571z"/>
	</g>
</g>
<g>
	<g>
		<path d="M174.857,416c-15.125,0-27.429,12.304-27.429,27.429c0,15.125,12.304,27.429,27.429,27.429
			c15.125,0,27.429-12.304,27.429-27.429C202.286,428.304,189.982,416,174.857,416z M174.857,452.571
			c-5.043,0-9.143-4.1-9.143-9.143c0-5.043,4.1-9.143,9.143-9.143c5.042,0,9.143,4.1,9.143,9.143
			C184,448.471,179.9,452.571,174.857,452.571z"/>
	</g>
</g>
</svg>