<?xml version="1.0" encoding="iso-8859-1"?>
<!-- Uploaded to: SVG Repo, www.svgrepo.com, Generator: SVG Repo Mixer Tools -->
<svg fill="#000000" height="800px" width="800px" version="1.1" id="Layer_1" xmlns="http://www.w3.org/2000/svg" xmlns:xlink="http://www.w3.org/1999/xlink" 
	 viewBox="0 0 512 512" xml:space="preserve">
<g>
	<g>
		<path d="M237.714,54.903c0-15.149-11.181-27.474-26.33-27.474H28.616C13.466,27.429,0,39.753,0,54.903V237.67
			c0,7.047,2.69,13.462,7.067,18.33C2.69,260.868,0,267.283,0,274.33v182.768c0,15.15,13.466,27.473,28.616,27.473h182.768
			c15.149,0,26.33-12.324,26.33-27.473V274.33c0-7.047-2.69-13.462-7.067-18.33c4.377-4.868,7.067-11.283,7.067-18.33V54.903z
			 M219.429,457.098c0,5.074-4.114,9.187-9.187,9.187H27.473c-5.074,0-9.187-4.114-9.187-9.187V274.33
			c0-5.074,4.114-9.187,9.187-9.187h182.768c5.074,0,9.187,4.114,9.187,9.187V457.098z M219.429,237.669
			c0,5.075-4.114,9.189-9.187,9.189H27.473c-5.074,0-9.187-4.114-9.187-9.189V54.903c0-5.075,4.114-9.189,9.187-9.189h182.768
			c5.074,0,9.187,4.114,9.187,9.189V237.669z"/>
	</g>
</g>
<g>
	<g>
		<path d="M512,54.903c0-15.149-11.181-27.474-26.33-27.474H302.902c-15.149,0-28.616,12.325-28.616,27.474V237.67
			c0,7.047,2.69,13.462,7.067,18.33c-4.377,4.868-7.067,11.283-7.067,18.33v182.768c0,15.15,13.467,27.473,28.616,27.473H485.67
			c15.149,0,26.33-12.324,26.33-27.473V274.33c0-7.047-2.69-13.462-7.067-18.33c4.377-4.868,7.067-11.283,7.067-18.33V54.903z
			 M493.714,457.098c0,5.074-4.114,9.187-9.187,9.187H301.759c-5.074,0-9.187-4.114-9.187-9.187V274.33
			c0-5.074,4.114-9.187,9.187-9.187h182.768c5.074,0,9.187,4.114,9.187,9.187V457.098z M493.714,237.669
			c0,5.075-4.114,9.189-9.187,9.189H301.759c-5.074,0-9.187-4.114-9.187-9.189V54.903c0-5.075,4.114-9.189,9.187-9.189h182.768
			c5.074,0,9.187,4.114,9.187,9.189V237.669z"/>
	</g>
</g>
<g>
	<g>
		<path d="M65.143,283.429c-15.125,0-27.429,12.304-27.429,27.429c0,15.125,12.304,27.429,27.429,27.429
			c15.125,0,27.429-12.304,27.429-27.429C92.571,295.732,80.268,283.429,65.143,283.429z M65.143,320C60.1,320,56,315.9,56,310.857
			c0-5.042,4.1-9.143,9.143-9.143c5.042,0,9.143,4.1,9.143,9.143C74.286,315.9,70.185,320,65.143,320z"/>
	</g>
</g>
<g>
	<g>
		<path d="M339.429,173.714c-15.125,0-27.429,12.305-27.429,27.429c0,15.124,12.304,27.429,27.429,27.429
			s27.429-12.305,27.429-27.429C366.857,186.019,354.554,173.714,339.429,173.714z M339.429,210.286
			c-5.043,0-9.143-4.102-9.143-9.143c0-5.041,4.1-9.143,9.143-9.143s9.143,4.102,9.143,9.143
			C348.571,206.184,344.471,210.286,339.429,210.286z"/>
	</g>
</g>
<g>
	<g>
		<path d="M120,118.857c-15.125,0-27.429,12.305-27.429,27.429s12.304,27.429,27.429,27.429c15.125,0,27.429-12.305,27.429-27.429
			S135.125,118.857,120,118.857z M120,155.429c-5.042,0-9.143-4.102-9.143-9.143s4.1-9.143,9.143-9.143
			c5.043,0,9.143,4.102,9.143,9.143S125.043,155.429,120,155.429z"/>
	</g>
</g>
<g>
	<g>
		<path d="M394.286,338.286c-15.125,0-27.429,12.304-27.429,27.429c0,15.125,12.304,27.429,27.429,27.429
			c15.125,0,27.429-12.304,27.429-27.429C421.714,350.589,409.411,338.286,394.286,338.286z M394.286,374.857
			c-5.042,0-9.143-4.1-9.143-9.143c0-5.043,4.1-9.143,9.143-9.143c5.043,0,9.143,4.1,9.143,9.143
			C403.429,370.757,399.328,374.857,394.286,374.857z"/>
	</g>
</g>
<g>
	<g>
		<path d="M449.143,64c-15.125,0-27.429,12.305-27.429,27.429c0,15.124,12.304,27.429,27.429,27.429
			c15.125,0,27.429-12.305,27.429-27.429C476.571,76.305,464.268,64,449.143,64z M449.143,100.571c-5.043,0-9.143-4.102-9.143-9.143
			c0-5.041,4.1-9.143,9.143-9.143c5.042,0,9.143,4.102,9.143,9.143C458.286,96.47,454.185,100.571,449.143,100.571z"/>
	</g>
</g>
<g>
	<g>
		<path d="M174.857,393.143c-15.125,0-27.429,12.304-27.429,27.429c0,15.125,12.304,27.429,27.429,27.429
			c15.125,0,27.429-12.304,27.429-27.429C202.286,405.446,189.982,393.143,174.857,393.143z M174.857,429.714
			c-5.043,0-9.143-4.1-9.143-9.143c0-5.042,4.1-9.143,9.143-9.143c5.042,0,9.143,4.1,9.143,9.143
			C184,425.614,179.9,429.714,174.857,429.714z"/>
	</g>
</g>
</svg>